<?xml version="1.0" standalone="no"?>
<!DOCTYPE svg PUBLIC "-//W3C//DTD SVG 20010904//EN"
 "http://www.w3.org/TR/2001/REC-SVG-20010904/DTD/svg10.dtd">
<svg version="1.0" xmlns="http://www.w3.org/2000/svg"
 width="768.000000pt" height="768.000000pt" viewBox="0 0 768.000000 768.000000"
 preserveAspectRatio="xMidYMid meet">
<metadata>
Created by potrace 1.11, written by Peter Selinger 2001-2013
</metadata>
<g transform="translate(0.000000,768.000000) scale(0.100000,-0.100000)"
fill="#000000" stroke="none">
<path d="M2669 7663 c-1 -10 -2 -142 -3 -293 l-1 -275 -145 -5 -145 -5 0 -588
c0 -384 -3 -587 -10 -588 -5 0 -270 0 -587 0 l-578 -1 0 -2659 0 -2659 733 0
734 0 0 -278 c1 -152 2 -285 2 -294 1 -17 22 -18 294 -18 l292 0 0 292 0 293
292 3 291 2 -1 -60 c-1 -33 2 -60 6 -60 5 0 6 -4 3 -9 -7 -10 -11 -219 -5
-226 3 -2 2 -32 -1 -67 -3 -35 -4 -87 -2 -115 l3 -53 293 0 292 0 0 300 c0
165 2 302 5 304 2 3 20 8 39 11 19 3 60 11 90 17 30 6 62 12 70 13 21 3 134
33 195 51 145 45 432 175 516 235 15 10 30 19 33 19 9 0 140 94 221 158 57 46
130 112 239 218 104 102 344 440 370 522 4 12 12 22 17 22 5 0 9 6 9 13 0 7 8
31 19 53 67 140 138 336 158 431 9 49 10 53 13 56 3 3 10 38 15 77 3 19 7 42
10 50 2 8 7 38 11 65 3 28 8 59 11 70 9 35 11 437 3 500 -4 33 -11 85 -15 115
-7 59 -41 226 -55 275 -17 56 -78 240 -91 270 -7 17 -13 32 -14 35 0 3 -11 25
-23 49 -12 25 -22 48 -22 52 0 13 -116 214 -170 294 -53 80 -141 195 -172 227
-14 14 -17 43 -17 205 -1 103 -3 202 -5 218 -2 17 -7 59 -11 95 -4 36 -8 67
-10 70 -2 3 -6 27 -9 54 -8 56 -63 281 -76 311 -5 11 -16 40 -24 65 -35 108
-143 340 -187 402 -11 14 -19 28 -19 31 0 7 -80 124 -145 212 -159 215 -403
434 -660 591 -80 49 -107 63 -244 128 l-75 34 0 379 -1 378 -295 3 -296 2 6
-60 c3 -34 4 -63 2 -65 -4 -4 -5 -107 -1 -122 1 -5 1 -11 0 -15 -3 -23 -3
-219 0 -222 2 -2 2 -32 1 -65 l-4 -62 -41 7 c-62 9 -121 11 -343 13 l-201 1 1
293 0 292 -292 3 c-273 2 -292 1 -293 -15z m1086 -1176 c213 -28 449 -103 615
-194 436 -240 739 -620 869 -1084 16 -59 32 -122 35 -140 3 -19 7 -43 10 -54
25 -125 26 -391 1 -570 -2 -16 -7 -52 -11 -78 l-6 -49 99 -101 c207 -212 336
-413 422 -657 52 -149 87 -307 97 -445 10 -136 5 -311 -11 -415 -2 -14 -7 -45
-10 -69 -3 -23 -10 -54 -15 -67 -5 -13 -7 -24 -5 -24 3 0 -1 -16 -9 -35 -8
-19 -13 -35 -11 -35 12 0 -108 -308 -124 -320 -8 -5 -24 -45 -19 -45 2 0 -7
-14 -20 -32 -12 -17 -22 -34 -22 -37 0 -4 -5 -12 -10 -19 -6 -7 -38 -52 -73
-102 -54 -79 -243 -281 -319 -342 -53 -43 -186 -133 -196 -133 -6 0 -12 -4
-14 -9 -4 -12 -188 -102 -274 -135 -83 -31 -197 -65 -238 -71 -15 -2 -35 -7
-45 -9 -18 -6 -51 -12 -131 -23 -30 -4 -617 -7 -1304 -8 l-1250 0 0 2030 c-1
1117 1 2046 2 2066 l4 36 931 -2 932 -1 72 -26 c206 -74 317 -195 392 -430 11
-35 15 -170 7 -230 -20 -138 -128 -306 -251 -390 -36 -25 -133 -72 -145 -71
-3 0 -16 -4 -30 -9 -46 -18 -122 -22 -430 -22 l-305 -1 0 58 c0 31 -3 57 -7
57 -3 0 -4 8 -2 18 6 26 10 142 4 142 -4 0 -4 115 0 130 2 6 1 115 -1 156 l-2
30 -291 0 -291 -1 -1 -1476 0 -1477 945 3 c520 2 960 5 976 8 63 10 151 30
166 38 9 4 29 10 44 13 52 10 249 114 325 172 159 122 275 263 354 429 21 44
41 87 46 96 9 17 46 149 55 195 24 126 25 341 1 449 -20 89 -29 122 -53 186
-77 211 -254 445 -412 549 -13 8 -40 27 -61 42 -40 28 -202 108 -219 108 -15
0 -14 22 3 45 47 68 128 260 141 336 3 19 8 43 12 54 10 32 20 133 23 230 2
72 -13 197 -34 280 -1 6 -6 26 -10 45 -5 19 -12 40 -16 45 -4 6 -10 22 -14 38
-14 59 -125 267 -147 275 -5 2 -9 10 -9 18 0 24 -211 227 -290 280 -116 77
-279 149 -379 169 -13 2 -31 7 -41 10 -44 14 -114 17 -440 21 -190 2 -353 3
-362 4 -14 0 -17 9 -15 50 1 28 -1 50 -4 50 -4 0 -3 17 1 38 3 20 3 49 -1 63
-3 15 -3 33 2 40 4 7 5 17 3 21 -5 8 -8 102 -4 123 4 24 1 156 -5 164 -3 5 -1
12 5 16 6 4 8 10 5 16 -6 8 723 5 790 -4z m480 -2952 c223 -36 417 -223 468
-450 15 -68 18 -229 4 -251 -3 -6 -9 -25 -12 -43 -7 -40 -56 -143 -90 -188
-27 -36 -105 -111 -140 -134 -76 -49 -92 -57 -161 -80 -68 -22 -75 -22 -706
-24 l-637 -1 2 30 c2 17 0 43 -4 58 -4 16 -3 30 2 34 5 3 7 10 4 15 -6 8 -9
92 -5 114 2 13 1 138 -3 188 -1 21 0 43 4 49 4 5 3 25 -1 44 -4 18 -5 36 -2
39 3 3 5 40 3 83 -3 96 -3 110 1 200 2 39 0 72 -4 72 -3 0 -4 8 -2 18 6 26 10
142 4 142 -3 0 -4 21 -2 48 l4 47 611 -1 c337 0 635 -4 662 -9z"/>
</g>
</svg>
