<svg width="33" height="48" viewBox="0 0 33 48" fill="none" xmlns="http://www.w3.org/2000/svg">
<path d="M29.2875 19.7077C29.3333 19.2923 29.3333 18.8769 29.3333 18.4615C29.3333 12.2769 25.5292 6.96923 20.1667 4.77692V0H16.5V3.80769C15.9042 3.73846 15.2854 3.69231 14.6667 3.69231H12.8333V0H9.16667V3.69231H7.33333V11.0769H0V44.3077H9.16667V48H12.8333V44.3077H16.5V48H20.1667V44.1923C27.3854 43.2692 33 37.0615 33 29.5385C33 25.8692 31.6937 22.4077 29.2875 19.7077ZM18.3333 40.6154H16.5H12.8333H9.16667H3.66667V14.7692H4.21667H7.33333H11H14.6667H14.85C16.775 14.8615 18.3333 16.4769 18.3333 18.4615C18.3333 20.4923 16.6833 22.1538 14.6667 22.1538H11V18.4615H7.33333V22.1538V25.8462V36.9231H18.3333C22.3667 36.9231 25.6667 33.6 25.6667 29.5385C25.6667 26.3308 23.6042 23.5846 20.7625 22.5692C21.5417 21.3923 22 19.9846 22 18.4615C22 14.4 18.7 11.0769 14.6667 11.0769H11V7.38462H12.8333H14.6667C20.7396 7.38462 25.6667 12.3462 25.6667 18.4615C25.6667 19.0154 25.6208 19.5462 25.5521 20.1L25.4146 21.0231L26.0792 21.6692C28.1875 23.7462 29.3333 26.5385 29.3333 29.5385C29.3333 35.6538 24.4062 40.6154 18.3333 40.6154ZM22 29.5385C22 31.5692 20.35 33.2308 18.3333 33.2308H11V25.8462H14.6667H18.3333C20.35 25.8462 22 27.5077 22 29.5385Z" fill="#FF7A00"/>
</svg>
